<svg xmlns="http://www.w3.org/2000/svg" viewBox="0 0 23.631 5.897"><path fill="#ff0" d="M13.63 1.403h-2.229v1.448q.146-.203.432-.33.286-.133.616-.133.527 0 .857.222.33.216.47.565.146.343.146.73 0 .457-.171.82-.172.361-.527.57-.35.21-.87.21-.667 0-1.08-.342-.412-.343-.501-.915h.565q.082.362.35.565.266.204.672.204.502 0 .756-.299.254-.305.254-.8 0-.495-.254-.762-.254-.273-.75-.273-.336 0-.59.165-.248.159-.362.438h-.546V.896h2.762zm.792 1.759q0-1.092.356-1.701.355-.616 1.244-.616.883 0 1.239.616.355.61.355 1.701 0 1.112-.355 1.728-.356.615-1.239.615-.889 0-1.244-.615-.356-.616-.356-1.728zm2.623 0q0-.552-.076-.933-.07-.387-.299-.622-.222-.235-.648-.235-.431 0-.66.235-.222.235-.298.622-.07.38-.07.933 0 .572.07.96.076.387.298.621.229.235.66.235.426 0 .648-.235.229-.234.299-.622.076-.387.076-.959z" style="line-height:1.25" transform="translate(-1.414 -.226)" word-spacing="0"/><path fill="#1c2d00" d="m3.65.89-1.601 4.4h.61l.355-.984h.966v.984h.622l1.625-3.633L7.853 5.29h2.42v-.476H8.469V3.33h1.614v-.477H8.469V1.372h1.804V.896H7.89v3.276L6.431.896h-.407L4.557 4.179V.896H3.98V.89zm.33.71v2.235h-.8ZM18.116.896V5.29h.578V2.007L20.16 5.29h.406l1.461-3.277V5.29h2.381v-.476h-1.803V3.33h1.613v-.477h-1.613V1.372h1.803V.896H21.99l-1.626 3.631L18.74.896z" style="line-height:1.25" transform="translate(-1.414 -.226)" word-spacing="0"/><path fill="#ff0" d="M.041 0A.042.042 0 0 0 0 .043v5.812a.042.042 0 0 0 .041.043H23.59a.042.042 0 0 0 .04-.043V.043A.042.042 0 0 0 23.59 0Zm.041.084h23.465v5.73H.082Z" color="#000" paint-order="stroke fill markers"/></svg>
